<?xml version="1.0" encoding="UTF-8"?>
<!DOCTYPE svg PUBLIC "-//W3C//DTD SVG 1.1//EN" "http://www.w3.org/Graphics/SVG/1.1/DTD/svg11.dtd">
<svg xmlns="http://www.w3.org/2000/svg" version="1.1" width="512px" height="512px" style="shape-rendering:geometricPrecision; text-rendering:geometricPrecision; image-rendering:optimizeQuality; fill-rule:evenodd; clip-rule:evenodd" xmlns:xlink="http://www.w3.org/1999/xlink">
<g><path style="opacity:0.984" fill="#000000" d="M 137.5,-0.5 C 142.833,-0.5 148.167,-0.5 153.5,-0.5C 158.676,1.42148 163.676,3.92148 168.5,7C 243.667,82.1667 318.833,157.333 394,232.5C 404,247.833 404,263.167 394,278.5C 318.833,353.667 243.667,428.833 168.5,504C 163.676,507.079 158.676,509.579 153.5,511.5C 148.167,511.5 142.833,511.5 137.5,511.5C 116.463,504.454 107.297,489.788 110,467.5C 111.115,463.271 112.781,459.271 115,455.5C 180.986,388.68 247.153,322.014 313.5,255.5C 247.153,188.986 180.986,122.32 115,55.5C 105.361,36.7657 108.194,20.2657 123.5,6C 127.877,2.97481 132.544,0.80814 137.5,-0.5 Z"/></g>
</svg>
